<?xml version="1.0"?>
<svg width="128" height="128" xmlns="http://www.w3.org/2000/svg" xmlns:svg="http://www.w3.org/2000/svg">
 <g>
  <title>Layer 1</title>
  <path opacity="0.5" id="svg_1" d="m64.625004,1.799996l-62.499997,31.45895l-0.125,62.700002l62.374997,31.241052l62.499997,-31.45895l0.125,-62.700002l-62.374997,-31.241052zm28.937499,89.555868l-5.75,2.914379l-5.8125,-2.99609l0,-21.599089l-34.999998,0l0,21.6808l-5.75,2.914379l-5.8125,-2.99609l0,-53.657257l5.78125,-2.887142l5.78125,2.941616l0,21.653563l34.999998,0l0,-21.6808l5.78125,-2.887142l5.78125,2.941616l0,53.657257z" fill="#0E83CD"/>
  <text font-weight="bold" stroke="#ffff56" transform="rotate(-30.51382064819336 63.76621246337892,63.876937866210945) matrix(0.9575590065355877,0,0,1.6181719124911578,-532.4484510342689,-369.09414607876766) " xml:space="preserve" text-anchor="middle" font-family="Cursive" font-size="24" id="svg_2" y="277.250614" x="622.652502" fill="#ff0000">Snippets</text>
 </g>
</svg>