<?xml version="1.0"?>
<svg width="128" height="128" xmlns="http://www.w3.org/2000/svg" xmlns:svg="http://www.w3.org/2000/svg">
 <g>
  <title>Layer 1</title>
  <path opacity="0.5" id="svg_1" d="m64.126003,1.799996l-62.999998,31.45895l-0.126,62.700002l62.873998,31.241052l62.999998,-31.45895l0.126,-62.700002l-62.873998,-31.241052zm29.168999,89.555868l-5.796,2.914379l-5.859,-2.99609l0,-21.599089l-35.279999,0l0,21.6808l-5.796,2.914379l-5.859,-2.99609l0,-53.657257l5.8275,-2.887142l5.8275,2.941616l0,21.653563l35.279999,0l0,-21.6808l5.8275,-2.887142l5.8275,2.941616l0,53.657257z" fill="#0E83CD"/>
  <text font-weight="bold" stroke="#ffff56" transform="rotate(-1.3014835119247437 63.82555007934636,117.62984466552714) matrix(1.306937419246381,0,0,0.6247440479621051,-749.9266844222025,-67.62084278313664) " xml:space="preserve" text-anchor="middle" font-family="Fantasy" font-size="24" id="svg_2" y="306.296602" x="622.653773" fill="#ff0000">Snippets</text>
 </g>
</svg>